<svg width="72" height="73" viewBox="0 0 72 73" fill="none" xmlns="http://www.w3.org/2000/svg">
<path d="M17.0312 64.9375C26.25 64.9375 33.5625 53.4688 33.5625 36.9375C33.5625 20.4062 26.25 8.96875 17.0312 8.96875C7.8125 8.96875 0.5 20.4062 0.5 36.9375C0.5 53.4688 7.8125 64.9375 17.0312 64.9375ZM54.9688 64.9375C64.1875 64.9375 71.5 53.4688 71.5 36.9375C71.5 20.4062 64.1875 8.96875 54.9688 8.96875C45.75 8.96875 38.4375 20.4062 38.4375 36.9375C38.4375 53.4688 45.75 64.9375 54.9688 64.9375ZM10.0625 47.6875C15.125 47.6875 18.4688 44.1562 18.4688 38.8438C18.4688 33.5938 15.125 30.0625 10.0625 30.0625C7.6875 30.0625 5.71875 30.8125 4.25 32.1875C5.375 20.4375 10.6875 12.4375 17.0312 12.4062C24.25 12.375 30.125 22.5312 30.125 36.9375C30.125 51.2812 24.25 61.4688 17.0312 61.5C11.5312 61.5312 6.78125 55.4688 4.90625 46.0938C6.28125 47.125 8.03125 47.6875 10.0625 47.6875ZM47.9688 47.6875C53 47.6875 56.4062 44.1562 56.4062 38.8438C56.4062 33.5938 53 30.0625 47.9688 30.0625C45.5938 30.0625 43.5938 30.8438 42.1562 32.1875C43.2812 20.4375 48.5938 12.4375 54.9688 12.4375C62.1562 12.4062 68 22.5938 68 36.9375C68 51.2812 62.1562 61.4688 54.9688 61.4688C49.4375 61.5 44.6875 55.4375 42.7812 46.0938C44.1562 47.0938 45.9375 47.6875 47.9688 47.6875ZM45.5312 37.9062C44.4375 37.75 43.75 36.4688 44.0312 35.1562C44.3125 33.8125 45.3125 32.8438 46.375 33.0312C47.4688 33.25 48.0938 34.5312 47.8438 35.8125C47.5938 37.1562 46.5938 38.0938 45.5312 37.9062ZM7.625 37.9062C6.53125 37.75 5.84375 36.4688 6.09375 35.1562C6.375 33.8125 7.40625 32.8438 8.4375 33.0312C9.5625 33.2812 10.1875 34.5312 9.9375 35.8125C9.6875 37.1562 8.65625 38.0938 7.625 37.9062Z" fill="currentColor"/>
</svg>
