<svg width="48" height="48" viewBox="0 0 48 48" fill="none" xmlns="http://www.w3.org/2000/svg" xmlns:xlink="http://www.w3.org/1999/xlink"><g clip-path="url(#clip0_179_2161)"><rect width="48" height="48" rx="12" fill="url(#paint0_linear_179_2161)"/><g opacity="0.5" filter="url(#filter0_f_179_2161)"><g filter="url(#filter1_d_179_2161)"><path d="M34 20C35.0609 20 36.0783 20.4214 36.8284 21.1716C37.5786 21.9217 38 22.9391 38 24L38 36C38 37.0609 37.5786 38.0783 36.8284 38.8284C36.0783 39.5786 35.0609 40 34 40L14 40C12.9391 40 11.9217 39.5786 11.1716 38.8284C10.4214 38.0783 10 37.0609 10 36L10 24C10 22.9391 10.4214 21.9217 11.1716 21.1716C11.9217 20.4214 12.9391 20 14 20L34 20Z" stroke="url(#paint1_linear_179_2161)" stroke-width="4" stroke-linecap="round" stroke-linejoin="round" shape-rendering="crispEdges"/></g><g filter="url(#filter2_d_179_2161)"><path d="M34 14L14 14" stroke="white" stroke-width="4" stroke-linecap="round" stroke-linejoin="round" shape-rendering="crispEdges"/></g><g filter="url(#filter3_d_179_2161)"><path d="M32 8L16 8" stroke="white" stroke-width="4" stroke-linecap="round" stroke-linejoin="round" shape-rendering="crispEdges"/></g></g><g style="mix-blend-mode:soft-light"><rect width="48" height="48" fill="url(#pattern0_179_2161)"/></g><path d="M34 20C35.0609 20 36.0783 20.4214 36.8284 21.1716C37.5786 21.9217 38 22.9391 38 24L38 36C38 37.0609 37.5786 38.0783 36.8284 38.8284C36.0783 39.5786 35.0609 40 34 40L14 40C12.9391 40 11.9217 39.5786 11.1716 38.8284C10.4214 38.0783 10 37.0609 10 36L10 24C10 22.9391 10.4214 21.9217 11.1716 21.1716C11.9217 20.4214 12.9391 20 14 20L34 20Z" stroke="url(#paint2_linear_179_2161)" stroke-width="4" stroke-linecap="round" stroke-linejoin="round"/><path d="M34 14L14 14" stroke="white" stroke-width="4" stroke-linecap="round" stroke-linejoin="round"/><path d="M32 8L16 8" stroke="white" stroke-width="4" stroke-linecap="round" stroke-linejoin="round"/></g><rect x="1" y="1" width="46" height="46" rx="11" stroke="#342795" stroke-opacity="0.25" stroke-width="2"/><defs><filter id="filter0_f_179_2161" x="-4" y="-6" width="56" height="60" filterUnits="userSpaceOnUse" color-interpolation-filters="sRGB"><feFlood flood-opacity="0" result="BackgroundImageFix"/><feBlend mode="normal" in="SourceGraphic" in2="BackgroundImageFix" result="shape"/><feGaussianBlur stdDeviation="6" result="effect1_foregroundBlur_179_2161"/></filter><filter id="filter1_d_179_2161" x="0" y="14" width="48" height="40" filterUnits="userSpaceOnUse" color-interpolation-filters="sRGB"><feFlood flood-opacity="0" result="BackgroundImageFix"/><feColorMatrix in="SourceAlpha" type="matrix" values="0 0 0 0 0 0 0 0 0 0 0 0 0 0 0 0 0 0 127 0" result="hardAlpha"/><feOffset dy="4"/><feGaussianBlur stdDeviation="4"/><feComposite in2="hardAlpha" operator="out"/><feColorMatrix type="matrix" values="0 0 0 0 0 0 0 0 0 0 0 0 0 0 0 0 0 0 0.35 0"/><feBlend mode="normal" in2="BackgroundImageFix" result="effect1_dropShadow_179_2161"/><feBlend mode="normal" in="SourceGraphic" in2="effect1_dropShadow_179_2161" result="shape"/></filter><filter id="filter2_d_179_2161" x="4" y="8" width="40" height="20" filterUnits="userSpaceOnUse" color-interpolation-filters="sRGB"><feFlood flood-opacity="0" result="BackgroundImageFix"/><feColorMatrix in="SourceAlpha" type="matrix" values="0 0 0 0 0 0 0 0 0 0 0 0 0 0 0 0 0 0 127 0" result="hardAlpha"/><feOffset dy="4"/><feGaussianBlur stdDeviation="4"/><feComposite in2="hardAlpha" operator="out"/><feColorMatrix type="matrix" values="0 0 0 0 0 0 0 0 0 0 0 0 0 0 0 0 0 0 0.35 0"/><feBlend mode="normal" in2="BackgroundImageFix" result="effect1_dropShadow_179_2161"/><feBlend mode="normal" in="SourceGraphic" in2="effect1_dropShadow_179_2161" result="shape"/></filter><filter id="filter3_d_179_2161" x="6" y="2" width="36" height="20" filterUnits="userSpaceOnUse" color-interpolation-filters="sRGB"><feFlood flood-opacity="0" result="BackgroundImageFix"/><feColorMatrix in="SourceAlpha" type="matrix" values="0 0 0 0 0 0 0 0 0 0 0 0 0 0 0 0 0 0 127 0" result="hardAlpha"/><feOffset dy="4"/><feGaussianBlur stdDeviation="4"/><feComposite in2="hardAlpha" operator="out"/><feColorMatrix type="matrix" values="0 0 0 0 0 0 0 0 0 0 0 0 0 0 0 0 0 0 0.3 0"/><feBlend mode="normal" in2="BackgroundImageFix" result="effect1_dropShadow_179_2161"/><feBlend mode="normal" in="SourceGraphic" in2="effect1_dropShadow_179_2161" result="shape"/></filter><pattern id="pattern0_179_2161" patternContentUnits="objectBoundingBox" width="1" height="1"><use xlink:href="#image0_179_2161" transform="scale(0.00390625)"/></pattern><linearGradient id="paint0_linear_179_2161" x1="24" y1="0" x2="24" y2="48" gradientUnits="userSpaceOnUse"><stop stop-color="#895DF2"/><stop offset="1" stop-color="#342795"/></linearGradient><linearGradient id="paint1_linear_179_2161" x1="24" y1="20" x2="24" y2="40" gradientUnits="userSpaceOnUse"><stop stop-color="white"/><stop offset="1" stop-color="#D9D9D9"/></linearGradient><linearGradient id="paint2_linear_179_2161" x1="24" y1="20" x2="24" y2="40" gradientUnits="userSpaceOnUse"><stop stop-color="white"/><stop offset="1" stop-color="#D9D9D9"/></linearGradient><clipPath id="clip0_179_2161"><rect width="48" height="48" rx="12" fill="white"/></clipPath></defs></svg>